<?xml version="1.0" standalone="no"?>
<!DOCTYPE svg PUBLIC "-//W3C//DTD SVG 20010904//EN"
 "http://www.w3.org/TR/2001/REC-SVG-20010904/DTD/svg10.dtd">
<svg version="1.0" xmlns="http://www.w3.org/2000/svg"
 width="200.000000pt" height="200.000000pt" viewBox="0 0 200.000000 200.000000"
 preserveAspectRatio="xMidYMid meet">
<metadata>
Created by potrace 1.14, written by Peter Selinger 2001-2017
</metadata>
<g transform="translate(0.000000,200.000000) scale(0.100000,-0.100000)"
fill="#000000" stroke="none">
<path d="M738 1600 c-36 -31 -55 -61 -91 -142 -24 -57 -52 -136 -62 -176 l-18
-73 -63 -31 c-65 -32 -124 -79 -124 -97 0 -26 49 -22 104 9 31 18 59 31 61 29
2 -3 -10 -58 -26 -124 -33 -137 -36 -177 -13 -200 24 -23 40 -4 48 58 8 60 53
262 66 293 6 15 37 33 99 58 50 20 93 36 96 36 3 0 5 -203 5 -451 0 -380 2
-452 14 -465 8 -7 19 -14 25 -14 12 0 12 -6 11 577 0 271 3 363 12 369 6 4 52
17 102 28 78 18 91 25 94 43 6 38 -60 40 -185 7 -23 -6 -23 -6 -23 121 0 102
-3 133 -17 156 -25 42 -60 38 -115 -11z m81 -170 c2 -108 0 -121 -16 -126 -10
-3 -47 -17 -83 -30 -35 -13 -68 -20 -72 -16 -10 10 58 192 90 245 28 44 63 72
72 57 4 -6 8 -65 9 -130z"/>
<path d="M1227 1414 c-4 -4 -6 -97 -7 -207 0 -110 -3 -204 -7 -208 -5 -4 -20
-10 -35 -13 -14 -2 -35 -9 -46 -15 -38 -20 -42 -14 -42 64 0 43 -4 75 -10 75
-5 0 -10 6 -10 14 0 20 -19 31 -32 18 -5 -5 -9 -55 -9 -111 l1 -102 -55 -25
c-44 -20 -55 -30 -55 -49 0 -30 18 -36 65 -19 22 7 40 12 42 11 1 -2 4 -70 7
-152 4 -152 17 -215 42 -215 12 0 14 35 14 200 0 225 -7 207 86 235 l44 13 0
-186 c0 -204 9 -262 40 -262 19 0 20 9 20 234 l0 235 61 12 c68 13 89 29 89
66 0 23 -3 24 -27 18 -32 -8 -62 -15 -80 -19 -7 -1 -16 -5 -19 -9 -19 -19 -23
8 -26 188 -2 161 -6 197 -18 205 -18 11 -25 12 -33 4z"/>
</g>
</svg>
